# Blender v2.79 (sub 0) OBJ File: 'Crate1.blend'
# www.blender.org
mtllib Crate1.mtl
o Cube_Cube.001
v -1.000000 1.000000 1.000000
v -1.000000 1.000000 -1.000000
v -1.000000 -1.000000 -1.000000
v -1.000000 -1.000000 1.000000
v 1.000000 1.000000 -1.000000
v 1.000000 -1.000000 -1.000000
v 1.000000 1.000000 1.000000
v 1.000000 -1.000000 1.000000
v 0.000000 -1.000000 -1.000000
v 1.000000 0.000000 -1.000000
v 0.000000 -1.000000 1.000000
v 0.000000 1.000000 1.000000
v 1.000000 -0.000000 1.000000
v 1.000000 1.000000 0.000000
v 0.000000 1.000000 -1.000000
v -1.000000 1.000000 0.000000
v 1.000000 -1.000000 -0.000000
v -1.000000 0.000000 -1.000000
v -1.000000 -1.000000 -0.000000
v -1.000000 -0.000000 1.000000
v 0.000000 1.000000 0.000000
v 0.000000 -1.000000 -0.000000
v 0.000000 -0.000000 1.000000
v 1.000000 0.000000 0.000000
v 0.000000 0.000000 -1.000000
v -1.000000 0.000000 0.000000
v 0.500000 -1.000000 -1.000000
v 1.000000 -0.500000 -1.000000
v 0.500000 -1.000000 1.000000
v 0.500000 1.000000 1.000000
v 1.000000 -0.500000 1.000000
v 1.000000 1.000000 0.500000
v 0.500000 1.000000 -1.000000
v -1.000000 1.000000 -0.500000
v 1.000000 -1.000000 0.500000
v -1.000000 -0.500000 -1.000000
v -1.000000 -1.000000 0.500000
v -1.000000 -0.500000 1.000000
v -0.500000 -1.000000 -1.000000
v 1.000000 0.500000 -1.000000
v -0.500000 -1.000000 1.000000
v -0.500000 1.000000 1.000000
v 1.000000 0.500000 1.000000
v 1.000000 1.000000 -0.500000
v -0.500000 1.000000 -1.000000
v -1.000000 1.000000 0.500000
v 1.000000 -1.000000 -0.500000
v -1.000000 0.500000 -1.000000
v -1.000000 -1.000000 -0.500000
v -1.000000 0.500000 1.000000
v -0.500000 1.000000 0.000000
v 0.500000 1.000000 0.000000
v 0.000000 1.000000 0.500000
v 0.000000 1.000000 -0.500000
v 0.500000 -1.000000 -0.000000
v -0.500000 -1.000000 -0.000000
v 0.000000 -1.000000 0.500000
v 0.000000 -1.000000 -0.500000
v 0.000000 -0.500000 1.000000
v 0.000000 0.500000 1.000000
v 0.500000 -0.000000 1.000000
v -0.500000 -0.000000 1.000000
v 1.000000 -0.500000 -0.000000
v 1.000000 0.500000 0.000000
v 1.000000 0.000000 -0.500000
v 1.000000 -0.000000 0.500000
v 0.000000 -0.500000 -1.000000
v 0.000000 0.500000 -1.000000
v -0.500000 0.000000 -1.000000
v 0.500000 0.000000 -1.000000
v -1.000000 -0.500000 -0.000000
v -1.000000 0.500000 0.000000
v -1.000000 -0.000000 0.500000
v -1.000000 0.000000 -0.500000
v -1.000000 0.500000 -0.500000
v -1.000000 0.500000 0.500000
v -1.000000 -0.500000 0.500000
v 0.500000 0.500000 -1.000000
v -0.500000 0.500000 -1.000000
v -0.500000 -0.500000 -1.000000
v 1.000000 0.500000 0.500000
v 1.000000 0.500000 -0.500000
v 1.000000 -0.500000 -0.500000
v -0.500000 0.500000 1.000000
v 0.500000 0.500000 1.000000
v 0.500000 -0.500000 1.000000
v -0.500000 -1.000000 -0.500000
v -0.500000 -1.000000 0.500000
v 0.500000 -1.000000 0.500000
v 0.500000 1.000000 -0.500000
v 0.500000 1.000000 0.500000
v -0.500000 1.000000 0.500000
v -0.500000 1.000000 -0.500000
v 0.500000 -1.000000 -0.500000
v -0.500000 -0.500000 1.000000
v 1.000000 -0.500000 0.500000
v 0.500000 -0.500000 -1.000000
v -1.000000 -0.500000 -0.500000
vt 1.000000 0.750000
vt 0.750000 1.000000
vt 0.750000 0.750000
vt 1.000000 0.750000
vt 0.750000 1.000000
vt 0.750000 0.750000
vt 1.000000 0.750000
vt 0.750000 1.000000
vt 0.750000 0.750000
vt 1.000000 0.750000
vt 0.750000 1.000000
vt 0.750000 0.750000
vt 1.000000 0.750000
vt 0.750000 1.000000
vt 0.750000 0.750000
vt 1.000000 0.750000
vt 0.750000 1.000000
vt 0.750000 0.750000
vt 0.500000 0.750000
vt 0.250000 1.000000
vt 0.250000 0.750000
vt 0.500000 0.250000
vt 0.250000 0.500000
vt 0.250000 0.250000
vt 1.000000 0.250000
vt 0.750000 0.500000
vt 0.750000 0.250000
vt 0.500000 0.750000
vt 0.250000 1.000000
vt 0.250000 0.750000
vt 0.500000 0.250000
vt 0.250000 0.500000
vt 0.250000 0.250000
vt 1.000000 0.250000
vt 0.750000 0.500000
vt 0.750000 0.250000
vt 0.500000 0.750000
vt 0.250000 1.000000
vt 0.250000 0.750000
vt 0.500000 0.250000
vt 0.250000 0.500000
vt 0.250000 0.250000
vt 1.000000 0.250000
vt 0.750000 0.500000
vt 0.750000 0.250000
vt 0.500000 0.750000
vt 0.250000 1.000000
vt 0.250000 0.750000
vt 0.500000 0.250000
vt 0.250000 0.500000
vt 0.250000 0.250000
vt 1.000000 0.250000
vt 0.750000 0.500000
vt 0.750000 0.250000
vt 0.500000 0.750000
vt 0.250000 1.000000
vt 0.250000 0.750000
vt 0.500000 0.250000
vt 0.250000 0.500000
vt 0.250000 0.250000
vt 1.000000 0.250000
vt 0.750000 0.500000
vt 0.750000 0.250000
vt 0.500000 0.750000
vt 0.250000 1.000000
vt 0.250000 0.750000
vt 0.500000 0.250000
vt 0.250000 0.500000
vt 0.250000 0.250000
vt 1.000000 0.250000
vt 0.750000 0.500000
vt 0.750000 0.250000
vt 0.500000 0.500000
vt 0.750000 0.000000
vt 0.500000 0.000000
vt 1.000000 0.000000
vt 0.000000 0.500000
vt 0.000000 0.250000
vt 0.250000 0.000000
vt 0.000000 0.000000
vt 0.000000 1.000000
vt 0.000000 0.750000
vt 0.500000 0.500000
vt 0.750000 0.000000
vt 0.500000 0.000000
vt 1.000000 0.000000
vt 0.000000 0.500000
vt 0.000000 0.250000
vt 0.250000 0.000000
vt 0.000000 0.000000
vt 0.000000 1.000000
vt 0.000000 0.750000
vt 0.500000 0.500000
vt 0.750000 0.000000
vt 0.500000 0.000000
vt 1.000000 0.000000
vt 0.000000 0.500000
vt 0.000000 0.250000
vt 0.250000 0.000000
vt 0.000000 0.000000
vt 0.000000 1.000000
vt 0.000000 0.750000
vt 0.500000 0.500000
vt 0.750000 0.000000
vt 0.500000 0.000000
vt 1.000000 0.000000
vt 0.000000 0.500000
vt 0.000000 0.250000
vt 0.250000 0.000000
vt 0.000000 0.000000
vt 0.000000 1.000000
vt 0.000000 0.750000
vt 0.500000 0.500000
vt 0.750000 0.000000
vt 0.500000 0.000000
vt 1.000000 0.000000
vt 0.000000 0.500000
vt 0.000000 0.250000
vt 0.250000 0.000000
vt 0.000000 0.000000
vt 0.000000 0.750000
vt 0.500000 0.500000
vt 0.750000 0.000000
vt 0.000000 0.500000
vt 0.000000 0.250000
vt 0.250000 0.000000
vt 0.000000 1.000000
vt 0.000000 0.750000
vt 0.500000 1.000000
vt 1.000000 0.500000
vt 0.500000 1.000000
vt 1.000000 0.500000
vt 0.500000 1.000000
vt 1.000000 0.500000
vt 1.000000 0.500000
vt 0.500000 1.000000
vt 1.000000 0.500000
vt 0.500000 1.000000
vt 1.000000 0.500000
vt 1.000000 1.000000
vt 1.000000 1.000000
vt 1.000000 1.000000
vt 1.000000 1.000000
vt 1.000000 1.000000
vn -1.0000 0.0000 0.0000
vn 0.0000 0.0000 -1.0000
vn 1.0000 0.0000 0.0000
vn 0.0000 -0.0000 1.0000
vn 0.0000 -1.0000 -0.0000
vn 0.0000 1.0000 0.0000
usemtl Material.001
s off
f 36/1/1 49/2/1 98/3/1
f 28/4/2 27/5/2 97/6/2
f 31/7/3 35/8/3 96/9/3
f 38/10/4 41/11/4 95/12/4
f 27/13/5 47/14/5 94/15/5
f 45/16/6 34/17/6 93/18/6
f 51/19/6 46/20/6 92/21/6
f 52/22/6 53/23/6 91/24/6
f 33/25/6 54/26/6 90/27/6
f 55/28/5 35/29/5 89/30/5
f 56/31/5 57/32/5 88/33/5
f 39/34/5 58/35/5 87/36/5
f 59/37/4 29/38/4 86/39/4
f 60/40/4 61/41/4 85/42/4
f 50/43/4 62/44/4 84/45/4
f 63/46/3 47/47/3 83/48/3
f 64/49/3 65/50/3 82/51/3
f 43/52/3 66/53/3 81/54/3
f 67/55/2 39/56/2 80/57/2
f 68/58/2 69/59/2 79/60/2
f 40/61/2 70/62/2 78/63/2
f 71/64/1 37/65/1 77/66/1
f 72/67/1 73/68/1 76/69/1
f 48/70/1 74/71/1 75/72/1
f 75/72/1 26/73/1 72/67/1
f 34/74/1 72/67/1 16/75/1
f 2/76/1 75/72/1 34/74/1
f 76/69/1 20/77/1 50/78/1
f 46/79/1 50/78/1 1/80/1
f 16/75/1 76/69/1 46/79/1
f 77/66/1 4/81/1 38/82/1
f 73/68/1 38/82/1 20/77/1
f 26/73/1 77/66/1 73/68/1
f 78/63/2 25/83/2 68/58/2
f 33/84/2 68/58/2 15/85/2
f 5/86/2 78/63/2 33/84/2
f 79/60/2 18/87/2 48/88/2
f 45/89/2 48/88/2 2/90/2
f 15/85/2 79/60/2 45/89/2
f 80/57/2 3/91/2 36/92/2
f 69/59/2 36/92/2 18/87/2
f 25/83/2 80/57/2 69/59/2
f 81/54/3 24/93/3 64/49/3
f 32/94/3 64/49/3 14/95/3
f 7/96/3 81/54/3 32/94/3
f 82/51/3 10/97/3 40/98/3
f 44/99/3 40/98/3 5/100/3
f 14/95/3 82/51/3 44/99/3
f 83/48/3 6/101/3 28/102/3
f 65/50/3 28/102/3 10/97/3
f 24/93/3 83/48/3 65/50/3
f 84/45/4 23/103/4 60/40/4
f 42/104/4 60/40/4 12/105/4
f 1/106/4 84/45/4 42/104/4
f 85/42/4 13/107/4 43/108/4
f 30/109/4 43/108/4 7/110/4
f 12/105/4 85/42/4 30/109/4
f 86/39/4 8/111/4 31/112/4
f 61/41/4 31/112/4 13/107/4
f 23/103/4 86/39/4 61/41/4
f 87/36/5 22/113/5 56/31/5
f 49/114/5 56/31/5 19/115/5
f 3/116/5 87/36/5 49/114/5
f 88/33/5 11/117/5 41/118/5
f 37/119/5 41/118/5 4/120/5
f 19/115/5 88/33/5 37/119/5
f 89/30/5 8/111/5 29/121/5
f 57/32/5 29/121/5 11/117/5
f 22/113/5 89/30/5 57/32/5
f 90/27/6 21/122/6 52/22/6
f 44/123/6 52/22/6 14/95/6
f 5/86/6 90/27/6 44/123/6
f 91/24/6 12/124/6 30/125/6
f 32/126/6 30/125/6 7/110/6
f 14/95/6 91/24/6 32/126/6
f 92/21/6 1/127/6 42/128/6
f 53/23/6 42/128/6 12/124/6
f 21/122/6 92/21/6 53/23/6
f 93/18/6 16/129/6 51/19/6
f 54/26/6 51/19/6 21/122/6
f 15/130/6 93/18/6 54/26/6
f 94/15/5 17/131/5 55/28/5
f 58/35/5 55/28/5 22/113/5
f 9/132/5 94/15/5 58/35/5
f 95/12/4 11/133/4 59/37/4
f 62/44/4 59/37/4 23/103/4
f 20/134/4 95/12/4 62/44/4
f 96/9/3 17/131/3 63/46/3
f 66/53/3 63/46/3 24/93/3
f 13/135/3 96/9/3 66/53/3
f 97/6/2 9/136/2 67/55/2
f 70/62/2 67/55/2 25/83/2
f 10/137/2 97/6/2 70/62/2
f 98/3/1 19/138/1 71/64/1
f 74/71/1 71/64/1 26/73/1
f 18/139/1 98/3/1 74/71/1
f 36/1/1 3/140/1 49/2/1
f 28/4/2 6/141/2 27/5/2
f 31/7/3 8/142/3 35/8/3
f 38/10/4 4/143/4 41/11/4
f 27/13/5 6/141/5 47/14/5
f 45/16/6 2/144/6 34/17/6
f 51/19/6 16/129/6 46/20/6
f 52/22/6 21/122/6 53/23/6
f 33/25/6 15/130/6 54/26/6
f 55/28/5 17/131/5 35/29/5
f 56/31/5 22/113/5 57/32/5
f 39/34/5 9/132/5 58/35/5
f 59/37/4 11/133/4 29/38/4
f 60/40/4 23/103/4 61/41/4
f 50/43/4 20/134/4 62/44/4
f 63/46/3 17/131/3 47/47/3
f 64/49/3 24/93/3 65/50/3
f 43/52/3 13/135/3 66/53/3
f 67/55/2 9/136/2 39/56/2
f 68/58/2 25/83/2 69/59/2
f 40/61/2 10/137/2 70/62/2
f 71/64/1 19/138/1 37/65/1
f 72/67/1 26/73/1 73/68/1
f 48/70/1 18/139/1 74/71/1
f 75/72/1 74/71/1 26/73/1
f 34/74/1 75/72/1 72/67/1
f 2/76/1 48/70/1 75/72/1
f 76/69/1 73/68/1 20/77/1
f 46/79/1 76/69/1 50/78/1
f 16/75/1 72/67/1 76/69/1
f 77/66/1 37/65/1 4/81/1
f 73/68/1 77/66/1 38/82/1
f 26/73/1 71/64/1 77/66/1
f 78/63/2 70/62/2 25/83/2
f 33/84/2 78/63/2 68/58/2
f 5/86/2 40/61/2 78/63/2
f 79/60/2 69/59/2 18/87/2
f 45/89/2 79/60/2 48/88/2
f 15/85/2 68/58/2 79/60/2
f 80/57/2 39/56/2 3/91/2
f 69/59/2 80/57/2 36/92/2
f 25/83/2 67/55/2 80/57/2
f 81/54/3 66/53/3 24/93/3
f 32/94/3 81/54/3 64/49/3
f 7/96/3 43/52/3 81/54/3
f 82/51/3 65/50/3 10/97/3
f 44/99/3 82/51/3 40/98/3
f 14/95/3 64/49/3 82/51/3
f 83/48/3 47/47/3 6/101/3
f 65/50/3 83/48/3 28/102/3
f 24/93/3 63/46/3 83/48/3
f 84/45/4 62/44/4 23/103/4
f 42/104/4 84/45/4 60/40/4
f 1/106/4 50/43/4 84/45/4
f 85/42/4 61/41/4 13/107/4
f 30/109/4 85/42/4 43/108/4
f 12/105/4 60/40/4 85/42/4
f 86/39/4 29/38/4 8/111/4
f 61/41/4 86/39/4 31/112/4
f 23/103/4 59/37/4 86/39/4
f 87/36/5 58/35/5 22/113/5
f 49/114/5 87/36/5 56/31/5
f 3/116/5 39/34/5 87/36/5
f 88/33/5 57/32/5 11/117/5
f 37/119/5 88/33/5 41/118/5
f 19/115/5 56/31/5 88/33/5
f 89/30/5 35/29/5 8/111/5
f 57/32/5 89/30/5 29/121/5
f 22/113/5 55/28/5 89/30/5
f 90/27/6 54/26/6 21/122/6
f 44/123/6 90/27/6 52/22/6
f 5/86/6 33/25/6 90/27/6
f 91/24/6 53/23/6 12/124/6
f 32/126/6 91/24/6 30/125/6
f 14/95/6 52/22/6 91/24/6
f 92/21/6 46/20/6 1/127/6
f 53/23/6 92/21/6 42/128/6
f 21/122/6 51/19/6 92/21/6
f 93/18/6 34/17/6 16/129/6
f 54/26/6 93/18/6 51/19/6
f 15/130/6 45/16/6 93/18/6
f 94/15/5 47/14/5 17/131/5
f 58/35/5 94/15/5 55/28/5
f 9/132/5 27/13/5 94/15/5
f 95/12/4 41/11/4 11/133/4
f 62/44/4 95/12/4 59/37/4
f 20/134/4 38/10/4 95/12/4
f 96/9/3 35/8/3 17/131/3
f 66/53/3 96/9/3 63/46/3
f 13/135/3 31/7/3 96/9/3
f 97/6/2 27/5/2 9/136/2
f 70/62/2 97/6/2 67/55/2
f 10/137/2 28/4/2 97/6/2
f 98/3/1 49/2/1 19/138/1
f 74/71/1 98/3/1 71/64/1
f 18/139/1 36/1/1 98/3/1
o Cube_Cube.002
v -1.000000 -1.000000 1.000000
v -1.000000 -1.000000 -1.000000
v 1.000000 -1.000000 -1.000000
v 1.000000 -1.000000 1.000000
v -1.000000 1.000000 1.000000
v -1.000000 1.000000 -1.000000
v 1.000000 1.000000 -1.000000
v 1.000000 1.000000 1.000000
vt 0.000000 0.000000
vt 1.000000 0.000000
vt 1.000000 1.000000
vt 0.000000 1.000000
vt 0.000000 0.000000
vt 1.000000 0.000000
vt 1.000000 1.000000
vt 0.000000 1.000000
vt 0.000000 0.000000
vt 1.000000 0.000000
vt 1.000000 1.000000
vt 0.000000 1.000000
vt 0.000000 0.000000
vt 1.000000 0.000000
vt 1.000000 1.000000
vt 0.000000 1.000000
vt 0.000000 0.000000
vt 1.000000 0.000000
vt 1.000000 1.000000
vt 0.000000 1.000000
vn -1.0000 0.0000 0.0000
vn 0.0000 0.0000 -1.0000
vn 1.0000 0.0000 0.0000
vn 0.0000 0.0000 1.0000
vn 0.0000 -1.0000 0.0000
vn 0.0000 1.0000 0.0000
usemtl Material.002
s off
f 103/145/7 104/146/7 100/147/7 99/148/7
f 104/149/8 105/150/8 101/151/8 100/152/8
f 105/153/9 106/154/9 102/155/9 101/156/9
f 106/157/10 103/158/10 99/159/10 102/160/10
f 99/161/11 100/162/11 101/151/11 102/160/11
f 106/157/12 105/150/12 104/163/12 103/164/12
